<svg xmlns="http://www.w3.org/2000/svg" viewBox="0 0 185.07 206.98"><defs><style>.cls-1{fill:#64d4dd;}</style></defs><g id="Capa_2" data-name="Capa 2"><g id="Capa_1-2" data-name="Capa 1"><g id="g3924"><g id="g3926"><g id="g3928"><g id="g3934"><g id="path3936"><path class="cls-1" d="M105.5,168H79.57a3,3,0,0,1-2.87-4l2.82-8.3a32.51,32.51,0,0,0,1.7-10.45A31.3,31.3,0,0,0,76.81,129l-2.11-3.49a3,3,0,1,1,5.18-3.15L82,125.86a37.42,37.42,0,0,1,5.28,19.42,38.58,38.58,0,0,1-2,12.39L83.8,162h17.47l-1.46-4.3a38.31,38.31,0,0,1-2-12.39,37.43,37.43,0,0,1,5.29-19.42l2.11-3.49a3,3,0,1,1,5.19,3.15L108.25,129a31.39,31.39,0,0,0-4.4,16.27,32.51,32.51,0,0,0,1.7,10.45l2.82,8.3a3,3,0,0,1-2.87,4Z"/></g></g><g id="g3938"><g id="path3940"><path class="cls-1" d="M43,95.43A3,3,0,0,1,41.4,95,56.34,56.34,0,0,1,18.87,66.69a74.23,74.23,0,0,1-4.39-19.38,5.83,5.83,0,0,1,5.81-6.38H39.4a3,3,0,0,1,0,6.06H20.54a67.91,67.91,0,0,0,4,17.55A50.49,50.49,0,0,0,44.67,89.85,3,3,0,0,1,43,95.43Z"/></g></g><g id="g3942"><g id="path3944"><path class="cls-1" d="M59.09,117.35a3.2,3.2,0,0,1-.75-.09C25.66,109,11.53,87.63,5.42,71.12A88.59,88.59,0,0,1,.15,36a10.06,10.06,0,0,1,10.07-9.21H39.4a3,3,0,0,1,0,6.07H10.22a4,4,0,0,0-4,3.68A82,82,0,0,0,11.11,69c5.6,15.15,18.6,34.79,48.71,42.37a3,3,0,0,1-.73,6Z"/></g></g><g id="g3946"><g id="path3948"><path class="cls-1" d="M166,59.91a3.23,3.23,0,0,1-.68-.08A3,3,0,0,1,163,56.19a72.91,72.91,0,0,0,1.49-9.2H145.67a3,3,0,1,1,0-6.06h19.11a5.85,5.85,0,0,1,5.81,6.38A80,80,0,0,1,169,57.55,3,3,0,0,1,166,59.91ZM164.78,47Z"/></g></g><g id="g3950"><g id="path3952"><path class="cls-1" d="M126,117.35a3,3,0,0,1-.74-6C155.36,103.8,168.36,84.16,174,69a81.66,81.66,0,0,0,4.91-32.48,4,4,0,0,0-4-3.68H145.67a3,3,0,0,1,0-6.07h29.18A10.05,10.05,0,0,1,184.91,36a88.59,88.59,0,0,1-5.27,35.13c-6.1,16.51-20.24,37.92-52.92,46.14A3.18,3.18,0,0,1,126,117.35Z"/></g></g><g id="g3954"><g id="path3956"><path class="cls-1" d="M142.55,95.1a3,3,0,0,1-1.67-5.57,49.65,49.65,0,0,0,17.78-20.61,3,3,0,1,1,5.48,2.6A55.63,55.63,0,0,1,144.21,94.6,3,3,0,0,1,142.55,95.1Z"/></g></g><g id="g3958"><g id="path3960"><path class="cls-1" d="M149.21,22.93H35.86a6.78,6.78,0,0,1-6.77-6.77V6.77A6.78,6.78,0,0,1,35.86,0H58a3,3,0,1,1,0,6.06H35.86a.71.71,0,0,0-.71.71v9.39a.71.71,0,0,0,.71.71H149.21a.71.71,0,0,0,.71-.71V6.77a.71.71,0,0,0-.71-.71h-77a3,3,0,0,1,0-6.06h77A6.78,6.78,0,0,1,156,6.77v9.39A6.78,6.78,0,0,1,149.21,22.93Z"/></g></g><g id="g3962"><g id="path3964"><path class="cls-1" d="M92.53,129.2A56.23,56.23,0,0,1,36.37,73V19.9a3,3,0,0,1,3-3H145.67a3,3,0,0,1,3,3V73A56.24,56.24,0,0,1,92.53,129.2ZM42.43,22.93V73a50.11,50.11,0,1,0,100.21,0V22.93Z"/></g></g><g id="g3966"><g id="path3968"><path class="cls-1" d="M124.81,187.51H60.26a3,3,0,0,1-3-3v-9.39A13.14,13.14,0,0,1,70.35,162h44.37a13.14,13.14,0,0,1,13.12,13.12v9.39A3,3,0,0,1,124.81,187.51Zm-61.52-6.07h58.49v-6.35a7.07,7.07,0,0,0-7.06-7.06H70.35a7.07,7.07,0,0,0-7.06,7.06Z"/></g></g><g id="g3970"><g id="path3972"><path class="cls-1" d="M138.87,207H46.19a5.66,5.66,0,0,1-5.65-5.65V187.09a5.66,5.66,0,0,1,5.65-5.65h92.68a5.66,5.66,0,0,1,5.65,5.65v14.24A5.65,5.65,0,0,1,138.87,207Zm-92.26-6.06h91.85V187.51H46.61Z"/></g></g><g id="g3974"><g id="path3976"><path class="cls-1" d="M80.85,95.48A7.23,7.23,0,0,1,73.73,87l1.49-8.66a1.16,1.16,0,0,0-.34-1l-6.29-6.13a7.23,7.23,0,0,1,4-12.33l8.69-1.26a1.11,1.11,0,0,0,.87-.64l3.89-7.87a7.22,7.22,0,0,1,13,0h0L102.9,57a1.15,1.15,0,0,0,.88.64l8.69,1.26a7.23,7.23,0,0,1,4,12.33l-6.29,6.13a1.16,1.16,0,0,0-.33,1L111.33,87a7.22,7.22,0,0,1-10.48,7.62l-7.78-4.09a1.15,1.15,0,0,0-1.08,0l-7.77,4.09A7.27,7.27,0,0,1,80.85,95.48ZM92.53,51.14a1.12,1.12,0,0,0-1,.65L87.6,59.67a7.21,7.21,0,0,1-5.44,3.95l-8.69,1.26a1.17,1.17,0,0,0-.65,2L79.11,73a7.21,7.21,0,0,1,2.08,6.39l-1.48,8.66a1.16,1.16,0,0,0,1.68,1.23l7.78-4.09a7.22,7.22,0,0,1,6.73,0l7.77,4.09a1.13,1.13,0,0,0,1.23-.09,1.15,1.15,0,0,0,.46-1.14l-1.49-8.66A7.23,7.23,0,0,1,106,73l6.29-6.13a1.17,1.17,0,0,0-.64-2l-8.7-1.26a7.24,7.24,0,0,1-5.44-3.95l-3.88-7.88A1.14,1.14,0,0,0,92.53,51.14Z"/></g></g></g></g></g></g></g></svg>