<svg xmlns="http://www.w3.org/2000/svg" viewBox="0 0 147.09 147.09"><defs><style>.cls-1{fill:#64d4dd;}</style></defs><g id="Capa_2" data-name="Capa 2"><g id="Capa_1-2" data-name="Capa 1"><path class="cls-1" d="M43.37,0h60.32c.55.45,1.15.86,1.66,1.36q20.16,20.15,40.33,40.29a4.44,4.44,0,0,1,1.4,3.43q0,28.44,0,56.87a4.63,4.63,0,0,1-1.49,3.54q-20.08,20-40.11,40.11a4.63,4.63,0,0,1-3.54,1.49q-28.36-.06-56.73,0a4.79,4.79,0,0,1-3.67-1.51q-20-20.1-40.09-40.13A22.33,22.33,0,0,1,0,103.69V43.37c.52-.62,1-1.28,1.56-1.85q20-20,40-40C42.09,1,42.75.52,43.37,0ZM99.21,17.4c-.29.57-.45.86-.58,1.15Q88.52,43,78.42,67.41a4.74,4.74,0,0,0-.13,1.32,5.69,5.69,0,0,0,1.57-.17q24.18-10,48.33-20c.42-.17.83-.37,1.61-.72a17.3,17.3,0,0,1-1.49-1.16q-9.56-9.53-19.09-19.07c-1.67-1.67-1.93-2.85-.88-3.91s2.23-.83,3.92.86Q122.61,34.9,133,45.23c.38.37,1.12.8,1.49.67,2.18-.79,4.3-1.73,6.32-2.57L103.73,6.27c-.79,1.9-1.59,3.94-2.48,5.93a1.29,1.29,0,0,0,.37,1.73c1,.87,1.87,1.79,2.74,2.75a2.13,2.13,0,1,1-3,3C100.63,19,100,18.26,99.21,17.4ZM43.32,140.81c.8-1.92,1.6-3.95,2.49-5.94a1.28,1.28,0,0,0-.37-1.73c-1-1-2.06-2-3-3s-1.21-2.38-.32-3.31,2.17-.89,3.39.31c.8.78,1.53,1.63,2.41,2.58.29-.6.42-.85.52-1.1q10.13-24.43,20.23-48.87a4.48,4.48,0,0,0,.09-1.43,5.24,5.24,0,0,0-1.45.2Q43,88.49,18.79,98.54c-.39.16-.75.36-1.23.59.41.43.73.78,1.06,1.11q5.47,5.49,11,11l8.22,8.22c.27.27.56.53.8.82a2.15,2.15,0,0,1,.14,3.09,2.13,2.13,0,0,1-3.2-.1c-1.26-1.18-2.45-2.42-3.67-3.64-6-6-11.9-11.92-17.89-17.85a1.88,1.88,0,0,0-1.51-.55c-2.14.78-4.23,1.71-6.21,2.54ZM17.78,48c.19.09.47.26.76.38Q43,58.55,67.39,68.63a4.73,4.73,0,0,0,1.32.16,4.48,4.48,0,0,0-.09-1.43Q58.57,43,48.47,18.64c-.14-.34-.34-.65-.44-.85Q32.88,32.92,17.78,48Zm81.15,81.15L129.18,99c-.26-.12-.69-.31-1.13-.49L92.19,83.59c-4.19-1.73-8.38-3.48-12.58-5.18a4.34,4.34,0,0,0-1.31-.09c0,.44.06.88.11,1.32a1.49,1.49,0,0,0,.15.4q8.14,19.65,16.28,39.31C96.22,122.7,97.61,126,98.93,129.19ZM52,15.85c.22.57.37,1,.53,1.35q10,24.17,20,48.31a5.69,5.69,0,0,0,1,1.24,6.73,6.73,0,0,0,1-1.27q10-24.08,20-48.17c.19-.45.33-.93.51-1.46ZM15.87,52.06V95c.52-.19,1-.33,1.4-.51q24.09-10,48.17-20a7.19,7.19,0,0,0,1.31-.94,6.26,6.26,0,0,0-1.33-1.06q-24.08-10-48.17-20C16.82,52.38,16.37,52.24,15.87,52.06Zm115.35,0c-.65.24-1.14.41-1.61.61L94,67.39c-4.28,1.77-8.57,3.53-12.84,5.32-.34.15-.57.54-.86.82l.84.83c.07.06.18.06.27.1L130,94.58c.37.15.76.26,1.22.42ZM95,131.18c-.21-.57-.37-1.07-.57-1.54L76.23,85.7c-.57-1.37-1.1-2.75-1.71-4.1a8.23,8.23,0,0,0-1-1.29L72.5,81.65a.75.75,0,0,0-.06.13q-9.9,23.89-19.79,47.79c-.22.51-.39,1-.61,1.61ZM47.21,4.34c.86,2.07,1.71,3.93,2.39,5.85a1.75,1.75,0,0,0,2,1.34c10.48,0,21,0,31.44,0,4.21,0,8.42,0,12.63,0,.45,0,1.19,0,1.3-.28C98,9,98.86,6.72,99.86,4.34ZM4.38,99.84c2-.85,3.9-1.7,5.82-2.38a1.74,1.74,0,0,0,1.33-2c0-11.24,0-22.49,0-33.73,0-3.5,0-7,0-10.48,0-.44-.22-1.13-.54-1.28-2.11-1-4.28-1.82-6.56-2.76ZM142.72,47.21c-2.06.85-3.93,1.71-5.85,2.39a1.74,1.74,0,0,0-1.34,2c.05,10.19,0,20.38,0,30.57,0,4.5,0,9,0,13.5,0,.47.11,1.24.39,1.37,2.18,1,4.42,1.87,6.75,2.83ZM47.25,142.64H99.82c-.86-2.08-1.7-4-2.44-6a1.5,1.5,0,0,0-1.67-1.15c-2.87.07-5.74,0-8.61,0q-17.8,0-35.6,0c-.51,0-1.32.14-1.47.46C49,138.19,48.17,140.4,47.25,142.64ZM6.16,43.29c1.95.8,3.91,1.56,5.82,2.43a1.57,1.57,0,0,0,2.09-.41C20.29,39,26.56,32.78,32.82,26.52,37,22.36,41.15,18.21,45.28,14c.35-.35.76-1,.64-1.37-.81-2.21-1.75-4.36-2.64-6.49Zm97.58,97.52,37.07-37.07c-1.91-.79-3.94-1.59-5.93-2.48a1.31,1.31,0,0,0-1.74.35c-1.48,1.56-3,3.06-4.55,4.58q-13.34,13.34-26.71,26.66a1.84,1.84,0,0,0-.46,2.45C102.26,137.12,103,139,103.74,140.81ZM75.92,73.49a2.39,2.39,0,1,0-2.28,2.43A2.36,2.36,0,0,0,75.92,73.49Z"/></g></g></svg>