<svg xmlns="http://www.w3.org/2000/svg" viewBox="0 0 60.54 60.53"><defs><style>.cls-1{fill:#64d4dd;}</style></defs><g id="Capa_2" data-name="Capa 2"><g id="Capa_1-2" data-name="Capa 1"><path class="cls-1" d="M0,32.15V28.37c.09-.74.17-1.48.27-2.22A29.62,29.62,0,0,1,7.52,10.34,29.69,29.69,0,0,1,29.54,0a28.23,28.23,0,0,1,16,4.15C55,10,60,18.4,60.51,29.46a28.29,28.29,0,0,1-4.2,16.17A29.87,29.87,0,0,1,35.48,60.06c-1.09.21-2.21.31-3.32.47H28.38c-.74-.1-1.48-.17-2.22-.28a29.71,29.71,0,0,1-15.89-7.32,29.77,29.77,0,0,1-9.8-17.4C.27,34.42.15,33.28,0,32.15ZM38.31,13.8c-2.14,0-4.23-.11-6.3,0a6.29,6.29,0,0,0-6.26,5.67,25.18,25.18,0,0,0-.18,3.59c0,.66,0,1.32,0,2.06H22.16v6.22H25.6V48.83h7.28V31.3H37.8l.63-6.19H32.88c0-1.33,0-2.59,0-3.85a1.41,1.41,0,0,1,1.53-1.46c.8,0,1.61,0,2.42,0h1.47Z"/></g></g></svg>