<svg xmlns="http://www.w3.org/2000/svg" viewBox="0 0 60.53 60.53"><defs><style>.cls-1{fill:#64d4dd;fill-rule:evenodd;}</style></defs><g id="Capa_2" data-name="Capa 2"><g id="Capa_1-2" data-name="Capa 1"><g id="Layer_1"><path class="cls-1" d="M30.26,0A30.27,30.27,0,1,1,0,30.26,30.26,30.26,0,0,1,30.26,0ZM16.78,44.31h5.8V25.58h-5.8Zm2.87-21.18a3.46,3.46,0,1,0-3.43-3.46A3.44,3.44,0,0,0,19.65,23.13ZM31.84,34.48c0-2.63,1.22-4.2,3.54-4.2,2.13,0,3.15,1.5,3.15,4.2v9.83H44.3V32.45c0-5-2.84-7.44-6.81-7.44a6.55,6.55,0,0,0-5.65,3.09V25.58H26.28V44.31h5.56V34.48Z"/></g></g></g></svg>