<svg xmlns="http://www.w3.org/2000/svg" viewBox="0 0 147.02 147.06"><defs><style>.cls-1{fill:#b3b3b3;}</style></defs><g id="Capa_2" data-name="Capa 2"><g id="Capa_1-2" data-name="Capa 1"><path class="cls-1" d="M73.82,0c2.78.37,5.58.66,8.36,1.12a76.21,76.21,0,0,1,39,18.78l1.64,1.46c1.41-1.46,2.75-2.89,4.13-4.27,1.21-1.21,2.44-1.31,3.39-.35s.85,2.18-.37,3.39c-1.37,1.38-2.8,2.71-4.05,3.91,2.91,3.85,5.87,7.38,8.41,11.18a74.29,74.29,0,0,1,12.19,33.65c2.17,20.06-2.55,38.35-14.37,54.73-2.26,3.13-5,5.93-7.49,8.87a2.27,2.27,0,0,1-2.68.85,2.3,2.3,0,0,1-1.39-2.43,33.29,33.29,0,0,0-9.35-22.52A32.9,32.9,0,0,0,88.77,97.94c-.48,0-1,0-1.44-.08-1.66-.2-2.19-.78-2.44-2.46a85.31,85.31,0,0,0-1.35-8.76c-3.1-12.2-14.63-22.33-27.14-24-1.37-.18-2.75-.26-4.13-.39-2.45-.21-3-.75-3.1-3.17a30.75,30.75,0,0,0-2.34-11.17C41.92,36.31,33.31,29.27,20.91,27a41.29,41.29,0,0,0-4.71-.48c-1.13-.07-2.08-.31-2.5-1.51s.2-1.91,1-2.64A76.58,76.58,0,0,1,52.75,1.78C56.25,1,59.84.76,63.39.25c.41,0,.82-.16,1.24-.25ZM89,90.79c.44-.55.67-.85.92-1.14,5.09-6,10.4-11.89,15.24-18.12a105.9,105.9,0,0,0,15.94-27.59,34,34,0,0,0,2.4-11c.15-6-2.89-9.25-8.74-9.33a15.1,15.1,0,0,0-4.41.42,126.48,126.48,0,0,0-12.19,4.11C94.64,29.6,91.37,31.64,88,33.41c-1.37.72-2.62.41-3.21-.73a2.17,2.17,0,0,1,1.1-3c1.73-1,3.47-2,5.24-3A71.3,71.3,0,0,1,107.3,20.2c2-.47,4-.7,6-1.06A73,73,0,0,0,57.71,5.22,72.17,72.17,0,0,0,21,22.4C39,26.29,49.66,37.13,53.34,55l.81-.69c5.74-4.92,11.45-9.87,17.25-14.72,2.09-1.74,4.37-3.26,6.6-4.82a2.13,2.13,0,1,1,2.56,3.41c-.29.25-.61.46-.92.68A203.22,203.22,0,0,0,57.38,57.2c-.29.27-.54.59-.89,1A38.92,38.92,0,0,1,89,90.79ZM124.64,126C148.21,99.45,148,59.3,127.82,33.71c-.15,1.18-.24,2.26-.43,3.33C126,45,122.6,52.13,118.63,59,111.57,71.35,102.73,82.32,93,92.62c-.33.36-.64.74-1,1.09C110,97.47,120.79,108.14,124.64,126Z"/><path class="cls-1" d="M0,138.16c.57-.65,1.1-1.32,1.7-1.93L17.94,120c2.14-2.14,2.76-2.14,5,0,.16.16.35.3.93.79a7.46,7.46,0,0,1,.94-1.46q21.56-21.6,43.14-43.17A11.58,11.58,0,0,1,69.05,75a2.11,2.11,0,0,1,3,2.94A11.75,11.75,0,0,1,71,79.12L27.73,122.37c-.37.37-.72.76-1.05,1.1.06.17.06.28.12.35,2.54,2.76,2.53,3-.1,5.68q-8.13,8.12-16.24,16.24c-1.76,1.76-2.68,1.76-4.45,0q-3-3-6-6.13Zm23.2-11.61-2.66-2.65L5.46,139l2.61,2.63Z"/></g></g></svg>