<svg xmlns="http://www.w3.org/2000/svg" viewBox="0 0 60.39 60.42"><defs><style>.cls-1{fill:#64d4dd;}</style></defs><g id="Capa_2" data-name="Capa 2"><g id="Capa_1-2" data-name="Capa 1"><path class="cls-1" d="M32.07,60.42H28.29c-.39-.05-.77-.11-1.16-.15A29.41,29.41,0,0,1,10.39,53,29.52,29.52,0,0,1,.14,27.17a28.65,28.65,0,0,1,7.4-16.94A29.58,29.58,0,0,1,29.67,0a28.67,28.67,0,0,1,16,4.28A29.76,29.76,0,0,1,59.92,25c.21,1.09.31,2.21.47,3.32v3.77c0,.39-.11.78-.15,1.16A30.27,30.27,0,0,1,35.44,60C34.32,60.15,33.19,60.26,32.07,60.42ZM12.6,48.07l.63-.13c2.77-.73,5.54-1.44,8.31-2.19a1.68,1.68,0,0,1,1.28.16,17.51,17.51,0,0,0,11.81,1.47,18.07,18.07,0,1,0-20.5-10.71c1.14,1.52.85,3.09.31,4.76C13.74,43.58,13.22,45.8,12.6,48.07Z"/><path class="cls-1" d="M16.93,43.81c.47-1.72.9-3.35,1.36-5a1.2,1.2,0,0,0-.16-1.1,14.87,14.87,0,1,1,4.92,4.85,1.4,1.4,0,0,0-.92-.13C20.43,42.88,18.75,43.34,16.93,43.81Zm18.64-5.42a5.69,5.69,0,0,0,.83,0c2.12-.45,3.64-1.66,3.57-3.9a.81.81,0,0,0-.31-.62c-1.24-.64-2.5-1.23-3.76-1.82a.74.74,0,0,0-1,.33c-.39.54-.84,1-1.25,1.56a.79.79,0,0,1-1,.26,12.32,12.32,0,0,1-6.13-5.28.74.74,0,0,1,.06-1,10.42,10.42,0,0,0,1-1.42,1.15,1.15,0,0,0,.14-.86c-.47-1.23-1-2.44-1.51-3.64-.1-.22-.31-.5-.5-.54a2.56,2.56,0,0,0-2.4.38,5.07,5.07,0,0,0-1.56,4.87A10.63,10.63,0,0,0,24,31.11a18.29,18.29,0,0,0,7.06,6A10.86,10.86,0,0,0,35.57,38.39Z"/></g></g></svg>