<svg xmlns="http://www.w3.org/2000/svg" viewBox="0 0 128.83 147.07"><defs><style>.cls-1{fill:#64d4dd;}</style></defs><g id="Capa_2" data-name="Capa 2"><g id="Capa_1-2" data-name="Capa 1"><path class="cls-1" d="M21.33,147.07a1.92,1.92,0,0,0-.5-.24C8.47,144.76.9,134.57,2.67,122.25a20.57,20.57,0,0,1,6.79-12.32,2.09,2.09,0,0,1,3.08-.06,2.17,2.17,0,0,1-.08,3.1c-.44.51-.93,1-1.39,1.46a16.86,16.86,0,0,0,.69,23.45,17.31,17.31,0,0,0,23.9.16c1.19-1.16,1.38-2.51.51-3.57s-2.28-1.14-3.69-.1a25.19,25.19,0,0,1-3.43,2.32c-7.56,3.83-17-1.67-17.5-10.12a12.5,12.5,0,0,1,4.15-10C20.36,112,25,107.34,30,102.35L26.53,99c-.65.62-1,.93-1.34,1.26-1.73,1.72-3.44,3.47-5.19,5.17-1.11,1.1-2.39,1.2-3.3.34s-.84-2.22.31-3.41c.79-.83,1.62-1.63,2.43-2.44L22,97.34c-1.15-.1-1.9-.22-2.66-.23-2.62,0-3.13-.55-3.22-3.22a11.12,11.12,0,0,0-3.31-7.7A11.57,11.57,0,0,0,6.24,83C4,82.61,3.56,81.89,3.7,79.65A6.5,6.5,0,0,0,3.41,77c-.87-2.31-1.86-4.58-2.92-6.82-.83-1.76-.68-2.57,1-3.54q2.05-1.17,4.17-2.25l68.7-35.08q14.49-7.41,29-14.87a2.19,2.19,0,0,0,1.1-1.38c.39-4.5,3.13-6.95,7.59-6.74a2.42,2.42,0,0,0,1.6-.59c1.35-1.22,2.56-2.59,3.9-3.81a6.57,6.57,0,0,1,9.41.19,6.72,6.72,0,0,1,0,9.43c-1.19,1.25-2.49,2.39-3.62,3.69A2.63,2.63,0,0,0,122.6,17a6.67,6.67,0,0,1-6.21,7.34,2.08,2.08,0,0,0-2.1,1.43q-14.31,28-28.66,56Q79.47,93.92,73.28,106c-.78,1.52-1.92,2-3.12,1.43s-1.47-1.81-.73-3.35c.16-.34.34-.68.51-1q10.4-20.3,20.78-40.59c.23-.45.44-.9.66-1.36L91.15,61,52.23,120.84l7.19,2.67c.21-.38.45-.79.67-1.21,1.46-2.85,2.89-5.71,4.38-8.54a2.13,2.13,0,0,1,3-1.18,2.08,2.08,0,0,1,.94,2.93q-3,6.09-6.22,12.12c-.71,1.33-1.79,1.55-3.18.86-.46-.24-.9-.54-1.36-.79-2.85-1.54-5.75-2.84-9.12-2.48-1.44.15-2.15-.68-2.49-2a19.14,19.14,0,0,0-1.39-4.48,10.79,10.79,0,0,0-9.36-5.92c-3.15-.2-3.49-.57-3.55-3.7,0-.63-.1-1.26-.14-1.7-4.75,4.6-9.64,9-14.09,13.77-3.26,3.5-1.79,9.23,2.5,11.48,3.25,1.71,6.54,1.19,9.76-1.56a6.69,6.69,0,0,1,9.72.64,6.52,6.52,0,0,1-.71,9.26,27.82,27.82,0,0,1-5.89,4,45,45,0,0,1-6.64,2.09ZM89.39,36.94Q82.25,43.06,75.1,49.17a5.87,5.87,0,0,1-1.17.82,1.72,1.72,0,0,1-2.4-.56,4.29,4.29,0,0,1-.17-2.5c.07-.42.66-.78,1.06-1.12L97.71,24.14A2.64,2.64,0,0,0,98.63,23L11.44,79.56a43.07,43.07,0,0,1,5.35,4.66c1.47,1.76,2.38,4,3.58,6.07.09-.07.43-.3.74-.57L63,53.87c.19-.16.36-.32.55-.47,1.28-1,2.46-1,3.31,0s.64,2.25-.53,3.27c-3.29,2.85-6.61,5.67-9.92,8.5L24.45,92.55c-.25.21-.53.37-.88.61,7.88,3.8,8.23,4.16,12.11,12l70.24-82-.19-.2ZM49.07,117.8Q77.54,74,105.84,30.41l-.28-.22Q72,69.4,38.25,108.79A16.09,16.09,0,0,1,49.07,117.8ZM5.34,69.41,8,76.64,67.75,37.86l-.15-.3Zm103.8-57.62a2.74,2.74,0,0,0,0,2.35,63.8,63.8,0,0,0,5.41,5.5,2.06,2.06,0,0,0,3-.23,2.06,2.06,0,0,0,.27-3c-1.72-1.91-3.59-3.69-5.45-5.47-.31-.29-.87-.32-1.6-.57C110.28,10.81,109.41,11.17,109.14,11.79Zm10.69.16c1.4-1.27,2.92-2.5,4.24-3.91A2.19,2.19,0,0,0,123.7,5a2.21,2.21,0,0,0-3.13,0c-1.34,1.22-2.58,2.55-3.92,3.9Z"/></g></g></svg>