<svg xmlns="http://www.w3.org/2000/svg" viewBox="0 0 466.47 119.16"><defs><style>.cls-1{fill:#64d4dd;}.cls-2{fill:#fff;}</style></defs><g id="Capa_2" data-name="Capa 2"><g id="Capa_1-2" data-name="Capa 1"><path class="cls-1" d="M70.34,23.54c-.71,0-1.42,0-2.13.1h0a23.53,23.53,0,0,0-4.47.86l-.14.06c-.67.2-1.34.43-2,.69l-.28.13c-.6.26-1.2.53-1.79.84-.19.1-.37.22-.56.33-.48.27-1,.53-1.43.84-.32.22-.63.47-.95.7s-.63.44-.94.69c-.61.5-1.2,1-1.77,1.6s-1.11,1.17-1.61,1.78c-.12.15-.22.32-.34.47-.36.47-.73.94-1,1.43-.07.1-.12.21-.19.31-.35.55-.69,1.11-1,1.69-.05.09-.09.19-.13.28-.3.59-.59,1.19-.84,1.8v0a23,23,0,0,0-1.59,6.49,2.27,2.27,0,0,1,2.14,2.17l.38,0c.45,0,.9-.12,1.35-.19l.7-.13c.57-.12,1.13-.26,1.69-.42l.27-.06h0c.71-.22,1.42-.46,2.11-.74l.2-.1a19.73,19.73,0,0,0,1.87-.87l.17-.1.27-.16c.52-.29,1-.58,1.55-.91.26-.18.51-.39.77-.57s.76-.53,1.11-.82,1-.83,1.41-1.27c.12-.12.25-.22.37-.33.57-.58,1.11-1.17,1.61-1.78l.35-.48c.36-.47.72-.93,1-1.42.08-.12.14-.25.22-.37.34-.54.67-1.07,1-1.63l.14-.3c.3-.59.58-1.18.82-1.78a.88.88,0,0,0,0-.15,20.43,20.43,0,0,0,.7-2c.19-.64.34-1.29.47-1.94,0-.23.09-.47.13-.71.08-.45.15-.9.2-1.35,0-.16,0-.33,0-.5h0c0-.06,0-.11,0-.17h0c0-.43,0-.87.06-1.3l0-.52A.48.48,0,0,0,70.34,23.54Z"/><path class="cls-1" d="M70.38,70.35c0-.69,0-1.38-.1-2.07h0a23,23,0,0,0-.87-4.57s0,0,0-.05c-.21-.7-.46-1.4-.74-2.09a2.39,2.39,0,0,0-.13-.28,19.37,19.37,0,0,0-.83-1.79c-.09-.18-.21-.35-.31-.53-.28-.49-.55-1-.87-1.47-.15-.23-.33-.45-.5-.68-.29-.4-.57-.82-.89-1.21s-.66-.73-1-1.1-.4-.46-.61-.67-.25-.22-.37-.33c-.46-.44-.92-.88-1.41-1.28s-.75-.55-1.13-.83-.5-.38-.75-.55c-.52-.35-1.06-.65-1.59-.94-.14-.08-.26-.17-.4-.24-.61-.32-1.24-.61-1.88-.87l-.19-.09c-.68-.28-1.37-.52-2.07-.73l-.06,0a23.67,23.67,0,0,0-4.39-.86,2.28,2.28,0,0,1-2.14,2.13,23.15,23.15,0,0,0,2.57,8.62c.08.15.17.29.26.44.29.52.58,1,.92,1.55.13.21.3.41.45.62.3.43.6.86.94,1.27s.69.78,1.05,1.17c.19.2.35.41.55.61s.27.24.41.36c.44.43.89.85,1.36,1.24s.77.57,1.15.84.49.38.74.55c.52.34,1.05.64,1.59.94.13.07.26.16.4.23.62.33,1.26.62,1.91.89l.16.08a23.61,23.61,0,0,0,6.7,1.62h0C69,70.31,69.69,70.35,70.38,70.35Z"/><path class="cls-1" d="M44.75,47.08a22.23,22.23,0,0,0-3.86.72c-.6.16-1.19.35-1.78.56a22.87,22.87,0,0,0-5,2.47l-.27.19a24.34,24.34,0,0,0-3.41,2.81c-.57.57-1.1,1.16-1.6,1.77-.22.27-.4.55-.6.82s-.55.71-.79,1.08-.54.89-.8,1.34c-.12.22-.26.43-.38.65-.33.62-.62,1.26-.89,1.91,0,.06-.05.11-.07.16-.27.67-.51,1.36-.72,2l0,.09a23.38,23.38,0,0,0-.87,4.53h0c-.06.71-.1,1.41-.1,2.12h0c.71,0,1.42,0,2.13-.1h0a23.27,23.27,0,0,0,4.52-.86c.18,0,.35-.13.52-.18a23.44,23.44,0,0,0,9.37-5.71c.37-.38.7-.77,1.05-1.16.18-.21.38-.41.56-.62.36-.45.69-.92,1-1.39l.37-.5c.38-.59.73-1.19,1.06-1.8,0-.06.08-.12.11-.19.35-.66.66-1.33.94-2l0-.06a23.78,23.78,0,0,0,1.61-6.56A2.27,2.27,0,0,1,44.75,47.08Z"/><path class="cls-1" d="M46,40.33v0c-.2-.68-.44-1.35-.7-2l0-.14c-.25-.6-.53-1.19-.82-1.77-.05-.1-.09-.21-.15-.31-.28-.55-.61-1.07-.94-1.6-.08-.13-.15-.27-.24-.4-.36-.55-.76-1.08-1.18-1.61l-.21-.29c-.5-.61-1-1.2-1.61-1.78a23.61,23.61,0,0,0-3.35-2.76c-.11-.07-.21-.16-.32-.24a25.13,25.13,0,0,0-2.73-1.51A22.91,22.91,0,0,0,28,24l-.64-.1c-.53-.08-1.06-.17-1.59-.22h0c-.23,0-.47,0-.7,0-.51,0-1-.07-1.53-.07h0c0,.5,0,1,.07,1.49,0,.25,0,.49,0,.73l0,0h0c0,.11,0,.23,0,.34s.06.42.09.63c.09.66.2,1.31.35,1.95,0,.22.1.44.16.66.17.67.36,1.33.59,2,.06.16.11.33.18.49a21.86,21.86,0,0,0,1,2.39h0c0,.08.06.16.1.23.29.55.62,1.08,1,1.61.09.13.15.26.23.39.37.55.77,1.08,1.19,1.61.07.09.13.19.21.29.5.61,1,1.2,1.6,1.78s1.09,1,1.66,1.5,1.16.89,1.75,1.3l.23.17,0,0h0c.53.35,1.08.66,1.63,1l.71.38.68.31c.66.3,1.32.58,2,.82s1.18.4,1.78.56a22.17,22.17,0,0,0,2.45.51l.92.14.49.05a2.27,2.27,0,0,1,2.11-2.17A23.06,23.06,0,0,0,46,40.33Z"/><path class="cls-2" d="M57.7,47A27,27,0,0,0,80,47.77c.55-.22,1.06-.49,1.58-.74-.51-.25-1-.51-1.55-.74A27,27,0,0,0,57.7,47Z"/><path class="cls-2" d="M47.77,14c-.22-.54-.49-1.05-.74-1.57-.25.51-.52,1-.74,1.54A27.1,27.1,0,0,0,47,36.33,27,27,0,0,0,47.77,14Z"/><path class="cls-2" d="M36.33,47A27.07,27.07,0,0,0,14,46.25c-.54.23-1.05.49-1.57.75.51.25,1,.51,1.54.73A27,27,0,0,0,36.33,47Z"/><path class="cls-2" d="M46.25,80c.23.55.49,1.06.74,1.58.26-.51.52-1,.74-1.55A27,27,0,0,0,47,57.7,27,27,0,0,0,46.25,80Z"/><path class="cls-1" d="M93.58,64.52c-.47-.54-.93-1.12-1.42-1.77l-.06-.08c-.39-.55-.78-1.13-1.15-1.72l-.21-.35c-.34-.57-.64-1.12-.93-1.68-.06-.13-.12-.27-.19-.4l-.07-.15c-.29-.61-.51-1.12-.7-1.6a4.68,4.68,0,0,1-.18-.48L88.55,56c-.18-.5-.35-1-.49-1.48-.08-.25-.14-.5-.21-.78l-.16-.64c-.08-.32-.16-.64-.22-1s-.13-.79-.2-1.26l-.09-.66c0-.19-.06-.39-.08-.58C87,48.67,87,47.81,87,47s.05-1.69.14-2.61a5,5,0,0,1,.07-.54v-.06l.09-.65c.06-.42.12-.85.2-1.26s.14-.66.23-1l.15-.62c.07-.27.13-.53.21-.79.13-.46.29-.91.49-1.45l.09-.26c.07-.19.13-.37.21-.56.18-.47.39-1,.69-1.58l.1-.21c0-.12.11-.24.17-.36.28-.55.58-1.11.91-1.65l.22-.37c.37-.59.75-1.17,1.13-1.69l.14-.18c.47-.64.93-1.21,1.4-1.74a1.77,1.77,0,0,0,.3-1.86,1.79,1.79,0,0,0-1.54-1.09,23,23,0,0,1-2.3-.25H90c-.68-.11-1.36-.25-2-.4l-.39-.1c-.65-.16-1.27-.34-1.84-.53L85.23,25l-.11,0c-.65-.23-1.17-.43-1.64-.63L83,24.08,82.72,24c-.51-.24-1-.45-1.4-.69-.24-.13-.47-.27-.71-.42L80,22.5c-.27-.16-.54-.32-.81-.5s-.67-.48-1-.76l-.51-.38c-.16-.12-.33-.24-.46-.35-.31-.28-3.45-3.42-3.71-3.71s-.23-.3-.37-.49l-.4-.53c-.25-.33-.51-.67-.74-1s-.36-.57-.54-.87l-.32-.53c-.14-.23-.29-.47-.42-.72-.24-.42-.45-.87-.68-1.37l-.11-.22c-.09-.19-.18-.38-.26-.57-.2-.46-.4-1-.63-1.59l0-.15c0-.15-.11-.3-.16-.47-.19-.58-.37-1.18-.52-1.79l-.11-.43c-.16-.67-.29-1.35-.39-2l0-.24c-.11-.78-.19-1.5-.24-2.19A1.74,1.74,0,0,0,66.42.15a1.79,1.79,0,0,0-1.89.28c-.54.47-1.11.93-1.81,1.45l-.08.06c-.54.4-1.12.78-1.71,1.14l-.36.22c-.57.34-1.13.65-1.66.91l-.56.28c-.64.3-1.13.51-1.59.69l-.61.22-.2.08c-.52.18-1,.35-1.46.49-.27.08-.54.14-.86.22l-.53.13c-.34.09-.67.17-1,.24s-.81.13-1.32.2l-.58.09-.61.08a26.57,26.57,0,0,1-5.2,0l-.61-.08-.58-.09c-.46-.06-.9-.12-1.33-.2s-.62-.14-.93-.22l-.54-.13c-.31-.08-.62-.15-.92-.24-.47-.14-.93-.3-1.44-.48l-.18-.07c-.22-.07-.44-.15-.65-.24-.48-.18-1-.41-1.56-.68l-.1,0-.49-.23C34.51,4,34,3.65,33.42,3.33L33,3.09c-.6-.36-1.16-.74-1.68-1.11l-.19-.15C30.53,1.36,30,.91,29.45.46A1.82,1.82,0,0,0,27,.6a1.77,1.77,0,0,0-.51,1.13c-.05.69-.13,1.4-.25,2.19l0,.22c-.1.64-.23,1.31-.39,2l-.11.44c-.15.61-.33,1.21-.52,1.78L25,8.87l0,.1c-.22.62-.42,1.12-.61,1.57l-.27.58-.11.23c-.23.49-.45.93-.68,1.36-.13.25-.28.49-.43.74l-.33.53c-.16.28-.33.57-.52.84s-.5.71-.77,1.06l-.39.52-.32.43c-.28.31-3.42,3.45-3.71,3.71l-.48.36-.52.39c-.35.27-.69.53-1,.76s-.55.34-.86.53l-.53.32c-.24.14-.48.29-.72.42-.44.25-.91.47-1.35.68l-.23.1c-.19.1-.39.19-.58.27-.47.21-1,.41-1.58.62l-.16.06-.47.16c-.56.19-1.16.36-1.76.52l-.45.11c-.7.16-1.35.29-2,.39l-.25,0c-.77.11-1.48.19-2.17.24H1.55A1.67,1.67,0,0,0,.12,27.67a1.88,1.88,0,0,0,.35,1.88c.45.51.9,1.06,1.37,1.7l.14.19c.39.54.75,1.09,1.14,1.72l.21.35c.32.53.62,1.08.89,1.61.1.2.19.41.29.61.28.59.49,1.08.67,1.54.09.23.18.46.26.69l0,.17c.18.5.34.95.48,1.41s.16.62.24.94l.13.51c.08.32.16.63.22.95s.15.93.21,1.41l.08.53c0,.19.06.38.08.56.09.92.13,1.77.13,2.61s0,1.69-.13,2.6c0,.19,0,.37-.08.59l-.08.56c-.07.48-.13.92-.21,1.36s-.14.63-.22,1l-.15.58c-.07.29-.14.58-.22.86-.14.47-.3.94-.48,1.43l0,.14c-.08.24-.17.48-.26.71-.18.46-.4,1-.67,1.53-.09.21-.19.41-.29.62-.27.53-.57,1.08-.88,1.6L3.1,61c-.38.61-.74,1.15-1.11,1.66l-.15.21c-.47.63-.92,1.19-1.37,1.7h0l-.07.07a1.71,1.71,0,0,0-.23,1.85,1.86,1.86,0,0,0,1.58,1.09c.7.05,1.41.13,2.26.25l.15,0c.63.11,1.28.23,2,.39l.46.12c.62.16,1.2.33,1.78.52l.63.22c.62.22,1.11.42,1.57.61l.62.29.23.11c.46.22.89.42,1.31.65.26.14.5.29.77.46l.53.32c.27.16.54.32.81.5s.71.51,1.06.78l.5.37c.16.12.32.23.45.34.33.3,3.43,3.39,3.7,3.7.13.15.24.31.37.49l.39.52c.27.35.52.68.75,1s.35.54.53.84l.31.52c.15.25.3.5.44.76.23.42.44.86.67,1.34l.09.19c.1.21.2.42.29.63.2.45.39,1,.61,1.56l0,.1.19.54c.19.57.36,1.17.51,1.76l.12.46c.15.66.29,1.33.39,2l0,.26c.11.77.19,1.48.24,2.17A1.89,1.89,0,0,0,27,93.48a1.81,1.81,0,0,0,2.47.1c.53-.46,1.09-.91,1.72-1.38l.18-.13c.54-.39,1.11-.77,1.69-1.13l.38-.23c.55-.33,1.1-.63,1.64-.9l.48-.23.1,0c.61-.29,1.11-.51,1.56-.69l.6-.22.24-.08c.53-.19,1-.35,1.44-.48l.82-.22.62-.15c.31-.08.63-.16,1-.22s.82-.14,1.27-.2l.64-.09.59-.08a25.2,25.2,0,0,1,5.21,0l.61.08.63.09c.45.06.86.12,1.27.2l.88.2.7.18c.28.06.55.13.82.21.48.14,1,.31,1.44.48l.23.08.6.22c.47.19,1,.41,1.56.69l.13.06.46.22c.52.26,1.07.57,1.63.89l.38.23c.6.37,1.17.76,1.68,1.13l.19.14c.63.46,1.19.91,1.72,1.38a1.92,1.92,0,0,0,1.21.44,1.82,1.82,0,0,0,1.34-.62,1.72,1.72,0,0,0,.43-1.05c0-.73.13-1.45.26-2.29v-.12c.11-.66.24-1.34.4-2l.1-.4c.16-.63.34-1.25.53-1.82,0-.15.1-.3.16-.46l0-.14c.22-.63.42-1.15.63-1.61.07-.18.16-.36.25-.55l.11-.23c.22-.46.44-.94.69-1.39.13-.24.27-.47.42-.71l.33-.56c.17-.28.34-.56.53-.84s.47-.66.75-1l.41-.56.33-.44c.3-.33,3.39-3.42,3.7-3.7l.45-.34,0,0,.54-.41c.34-.25.67-.5,1-.73s.59-.38.9-.56l.53-.32c.23-.14.45-.28.68-.4.45-.25.93-.47,1.39-.69l.21-.1.57-.26c.47-.21,1-.41,1.61-.63l.2-.07.39-.14c.61-.2,1.22-.37,1.85-.54l.38-.09c.69-.16,1.37-.29,2.07-.4l.15,0c.78-.11,1.5-.19,2.26-.24h.09A1.76,1.76,0,0,0,94,66.29,1.74,1.74,0,0,0,93.58,64.52ZM64.79,87.1c-.15.62-.28,1.24-.38,1.85-.5-.35-1-.7-1.57-1l-.41-.24c-.62-.37-1.25-.71-1.86-1L60,86.39l-.13-.06c-.64-.31-1.22-.56-1.77-.78l-.71-.26-.23-.09c-.57-.2-1.09-.38-1.63-.54-.33-.1-.65-.18-1-.25l-.6-.15c-.38-.1-.76-.19-1.16-.27s-1-.17-1.45-.22l-.62-.1-.76-.1a29.08,29.08,0,0,0-5.9,0l-.78.11-.59.08c-.43.06-1,.13-1.47.23s-.77.17-1.15.27l-.63.15-.94.25c-.55.16-1.07.34-1.64.55l-.3.1-.64.24c-.53.21-1.1.46-1.77.77l-.11.06c-.18.09-.37.17-.55.27-.63.31-1.26.66-1.87,1l-.41.25c-.55.34-1.08.68-1.59,1-.1-.6-.23-1.22-.38-1.84l-.12-.49c-.17-.68-.37-1.36-.59-2-.07-.21-.14-.42-.21-.61l0-.11c-.25-.68-.47-1.25-.7-1.78-.11-.25-.22-.5-.34-.75l-.09-.17c-.24-.52-.48-1-.76-1.53-.15-.29-.32-.56-.49-.84l-.35-.57c-.19-.33-.39-.66-.61-1s-.58-.82-.89-1.22l-.34-.45c-.15-.22-.31-.43-.48-.64-.31-.37-3.81-3.87-4.17-4.16-.2-.17-.41-.32-.62-.48L18,70c-.43-.33-.81-.62-1.22-.89s-.65-.42-1-.63l-.49-.3c-.3-.18-.6-.36-.9-.52-.51-.28-1-.52-1.53-.77l-.18-.08L12,66.45c-.51-.22-1.07-.44-1.8-.7q-.35-.14-.69-.24c-.65-.22-1.31-.41-2-.6l-.5-.12c-.64-.15-1.25-.27-1.86-.38.35-.49.69-1,1-1.57l.27-.44c.36-.61.7-1.23,1-1.84.12-.23.23-.46.34-.69.3-.65.54-1.2.76-1.74l.27-.75.08-.22c.19-.54.38-1.06.54-1.61.1-.34.18-.69.27-1.06L9.78,54c.09-.37.18-.74.25-1.11.11-.55.18-1.08.25-1.58l.07-.52c0-.25.08-.49.1-.74.1-1,.15-2,.15-3s0-1.92-.15-2.95c0-.24-.06-.49-.1-.75l-.07-.48c-.06-.5-.14-1.06-.25-1.61-.07-.38-.17-.76-.26-1.14l-.12-.48c-.09-.37-.18-.73-.28-1.09C9.21,38,9,37.47,8.83,36.94l-.06-.19c-.1-.26-.19-.53-.29-.78-.22-.54-.46-1.09-.76-1.74l-.34-.7c-.3-.6-.64-1.22-1-1.84l-.26-.43c-.35-.57-.69-1.09-1.05-1.6.6-.1,1.2-.23,1.84-.38l.49-.12c.68-.17,1.36-.37,2-.59l.58-.2.14-.05c.72-.26,1.27-.47,1.78-.7.23-.09.45-.2.67-.3l0,0,.2-.09c.52-.25,1-.49,1.54-.77l.86-.5.51-.31c.34-.21.69-.41,1-.64s.79-.56,1.19-.86l.48-.37c.22-.16.43-.31.63-.48s3.88-3.82,4.17-4.16.32-.42.47-.62l.39-.52c.28-.38.58-.76.85-1.17s.42-.66.62-1l.32-.53c.17-.29.35-.58.51-.87.27-.5.51-1,.77-1.54l.08-.18c.12-.24.24-.49.35-.74.22-.53.45-1.1.69-1.78l.06-.17c.07-.18.13-.37.19-.55.22-.64.42-1.32.6-2l.11-.48q.22-.93.39-1.86c.5.35,1,.7,1.57,1l.41.26c.62.36,1.24.7,1.86,1l.66.32c.64.3,1.22.56,1.77.78l.78.28.17.06c.54.2,1.07.38,1.63.55l1,.27.52.12c.39.1.78.2,1.18.28s1,.17,1.54.23l.54.08c.25,0,.5.08.76.1a29,29,0,0,0,5.89,0c.27,0,.54-.06.8-.1l.53-.08c.54-.07,1-.14,1.52-.23s.8-.18,1.19-.28l.56-.14,1-.25c.58-.17,1.14-.37,1.66-.56l.27-.09.65-.24c.55-.22,1.11-.47,1.82-.8l.62-.3c.62-.31,1.25-.66,1.89-1l.39-.24c.54-.33,1.07-.67,1.58-1,.11.6.23,1.22.38,1.83l.11.46c.18.7.38,1.39.6,2,0,.18.12.35.19.55l0,.15c.26.71.48,1.28.71,1.8.1.24.21.47.31.7l.1.21c.24.5.49,1,.78,1.55.16.29.33.57.5.86l.31.52c.21.34.42.68.64,1s.56.79.86,1.18l.37.5q.23.31.48.63c.28.34,3.83,3.89,4.18,4.18s.42.33.63.48l.49.37c.38.28.77.58,1.18.86s.68.43,1,.63l.56.34c.27.16.54.33.82.48.53.29,1.06.54,1.58.79l.24.11.63.29c.54.23,1.12.46,1.85.72l.1,0,.55.19c.66.22,1.36.42,2.09.61l.44.1c.61.15,1.22.27,1.84.38-.35.5-.7,1-1,1.55l-.24.39c-.37.63-.72,1.27-1,1.88l-.23.48-.08.17c-.32.68-.57,1.24-.78,1.79-.09.22-.18.45-.26.68l-.09.25c-.18.51-.38,1.07-.55,1.65-.09.31-.17.62-.25,1l-.15.59c-.09.39-.19.78-.27,1.18s-.17,1-.23,1.45l-.08.61c0,.26-.08.52-.11.78-.1,1-.15,2-.15,2.95s0,1.92.15,3c0,.27.07.53.11.77l.09.65c.06.46.13.94.22,1.42s.17.77.27,1.18l.15.6c.08.32.16.63.25.94.17.58.37,1.15.56,1.67l.08.23c.08.23.17.46.25.68.22.55.47,1.12.8,1.82l.07.15c.08.16.15.32.23.47.31.63.66,1.25,1,1.91l.23.38c.33.54.68,1.06,1,1.56-.58.11-1.19.23-1.82.38l-.45.11c-.69.18-1.38.38-2.06.6l-.53.18-.14.05c-.71.26-1.29.48-1.82.71l-.69.32-.21.1c-.51.24-1,.49-1.56.78l-.86.5-.49.29c-.35.22-.7.43-1,.66s-.82.59-1.16.85l-.51.38c-.21.15-.43.31-.64.48-.37.31-3.87,3.82-4.16,4.17s-.34.43-.48.63l-.38.5c-.31.41-.59.78-.86,1.18s-.43.67-.64,1l-.33.54c-.17.28-.33.55-.48.83-.28.5-.52,1-.78,1.57l-.12.24c-.1.22-.2.43-.29.64-.24.54-.46,1.12-.72,1.83l0,.15-.18.52c-.22.66-.42,1.36-.61,2.08Z"/><path class="cls-1" d="M60.87,108.46a2,2,0,0,0-1.95,2,4.86,4.86,0,0,1-9.71,0V89.94a1.95,1.95,0,1,0-3.9,0v20.47a8.76,8.76,0,0,0,17.51,0A2,2,0,0,0,60.87,108.46Z"/><path class="cls-2" d="M123.69,56.61A12.09,12.09,0,0,0,124.4,61a8.07,8.07,0,0,0,1.89,2.94A7.38,7.38,0,0,0,129,65.58a9.92,9.92,0,0,0,3.22.52,9,9,0,0,0,3.31-.61,7.88,7.88,0,0,0,2.73-1.82,8.87,8.87,0,0,0,1.85-3,11.16,11.16,0,0,0,.69-4.09V27a1.56,1.56,0,0,1,.44-1.09,1.49,1.49,0,0,1,1.16-.48h10.19a1.64,1.64,0,0,1,1.27.48,1.56,1.56,0,0,1,.44,1.09V56.43a25.83,25.83,0,0,1-1.8,10.26,17.66,17.66,0,0,1-4.84,6.67,18.61,18.61,0,0,1-7,3.64,31.31,31.31,0,0,1-8.4,1.11,30.92,30.92,0,0,1-8.4-1.13,18.57,18.57,0,0,1-7-3.69A18.06,18.06,0,0,1,112,66.58a25.5,25.5,0,0,1-1.8-10.15V27a1.66,1.66,0,0,1,.39-1.09,1.2,1.2,0,0,1,1-.48H122.2c.63,0,1,.16,1.22.46a2.12,2.12,0,0,1,.27,1.11Z"/><path class="cls-2" d="M189.67,52.32a9.74,9.74,0,0,0-.49-3.13,7.25,7.25,0,0,0-1.39-2.43,6.08,6.08,0,0,0-2.12-1.57,6.71,6.71,0,0,0-2.7-.54,6.5,6.5,0,0,0-2.67.54,6,6,0,0,0-2.09,1.55,7.1,7.1,0,0,0-1.35,2.42,10.08,10.08,0,0,0-.47,3.16V75.67a1.44,1.44,0,0,1-.42,1.24,1.86,1.86,0,0,1-1.25.4H164.64A1.45,1.45,0,0,1,163,75.67V34.32a1.45,1.45,0,0,1,1.63-1.64H171a2.39,2.39,0,0,1,1.56.6,2.76,2.76,0,0,1,1,1.4l1,3.93a14.28,14.28,0,0,1,5.58-4.91,16.25,16.25,0,0,1,6.9-1.45,17.6,17.6,0,0,1,3.14.3,13.49,13.49,0,0,1,3.27,1.08,13.68,13.68,0,0,1,3.13,2.07A13.11,13.11,0,0,1,199.2,39a18.38,18.38,0,0,1,6.12-5,16.28,16.28,0,0,1,7.33-1.72,15.24,15.24,0,0,1,7.2,1.6,14.54,14.54,0,0,1,5.08,4.36,19.63,19.63,0,0,1,3,6.44,29.91,29.91,0,0,1,1,7.82V75.71a1.44,1.44,0,0,1-1.64,1.6h-9.86a1.42,1.42,0,0,1-1.6-1.6V52.36a11,11,0,0,0-.42-3.13,6.91,6.91,0,0,0-1.23-2.42,5.86,5.86,0,0,0-2-1.56,6.1,6.1,0,0,0-2.68-.57,6.84,6.84,0,0,0-2.74.55,6,6,0,0,0-2.15,1.56,7.69,7.69,0,0,0-1.4,2.42,9.17,9.17,0,0,0-.51,3.15l0,23.35a1.42,1.42,0,0,1-1.6,1.6h-9.89a1.42,1.42,0,0,1-1.6-1.6Z"/><path class="cls-2" d="M237.38,21.33a1.5,1.5,0,0,1,.44-1.18,1.78,1.78,0,0,1,1.2-.38h10.15a1.38,1.38,0,0,1,1.56,1.56V36.57a15.08,15.08,0,0,1,10.84-4.25,21.37,21.37,0,0,1,8.87,1.8A20.85,20.85,0,0,1,277.3,39a22.36,22.36,0,0,1,4.43,7.27,25.89,25.89,0,0,1-.14,18.24,21.82,21.82,0,0,1-4.71,7.22,21.29,21.29,0,0,1-15.28,6.31,14.2,14.2,0,0,1-6.16-1.34,16.42,16.42,0,0,1-5-3.71l-.36,1c-.1.26-.22.59-.37,1a6.45,6.45,0,0,1-.53,1.09,3.35,3.35,0,0,1-.72.89,1.4,1.4,0,0,1-1,.37H239a1.74,1.74,0,0,1-1.2-.4,1.52,1.52,0,0,1-.44-1.17Zm13,37.43a11.71,11.71,0,0,0,2,3.6,11.32,11.32,0,0,0,3.29,2.71,9.14,9.14,0,0,0,4.46,1.07,11.4,11.4,0,0,0,4.6-.87,9.71,9.71,0,0,0,5.4-5.89,13.41,13.41,0,0,0,.69-4.33,11.88,11.88,0,0,0-.77-4.29A10.27,10.27,0,0,0,268,47.28,10,10,0,0,0,264.57,45a11.51,11.51,0,0,0-4.46-.83,9.05,9.05,0,0,0-4.4,1,11,11,0,0,0-3.27,2.65,11.59,11.59,0,0,0-2,3.55,10.83,10.83,0,0,0-.69,3.67A11.23,11.23,0,0,0,250.4,58.76Z"/><path class="cls-2" d="M290.45,34.35a1.4,1.4,0,0,1,1.56-1.6h6a3.81,3.81,0,0,1,1.44.26,2.7,2.7,0,0,1,1.18,1.56l1.53,3.89,2.13-2.31a14.92,14.92,0,0,1,2.25-2,10.51,10.51,0,0,1,2.77-1.36,11.65,11.65,0,0,1,3.65-.51,12.55,12.55,0,0,1,4.22.71,21.62,21.62,0,0,1,3.69,1.65,25,25,0,0,1,2.84,1.86c.79.6,1.33,1,1.62,1.31a2.16,2.16,0,0,1,.91,1.43,2.43,2.43,0,0,1-.51,1.37l-4.55,6.43a1.31,1.31,0,0,1-1.09.69,1.74,1.74,0,0,1-1.13-.5l-1.14-1a11.07,11.07,0,0,0-1.57-1.1,9.63,9.63,0,0,0-2-.9,8.18,8.18,0,0,0-2.51-.36,9,9,0,0,0-3,.49,6.85,6.85,0,0,0-4.19,3.93,8.74,8.74,0,0,0-.61,3.4v24a1.4,1.4,0,0,1-1.6,1.57H292a1.38,1.38,0,0,1-1.56-1.57Z"/><path class="cls-2" d="M360.86,62.69a1.14,1.14,0,0,1,1,.51l4.47,6.18a2.2,2.2,0,0,1,.55,1.29,1.42,1.42,0,0,1-.62,1.07,27.18,27.18,0,0,1-4.33,3.17,23.38,23.38,0,0,1-4.22,1.92,20.66,20.66,0,0,1-4.11,1,32.7,32.7,0,0,1-4.07.25,21.54,21.54,0,0,1-8.66-1.8,23.94,23.94,0,0,1-7.29-4.89,23.71,23.71,0,0,1-5-7.25,21.43,21.43,0,0,1-1.87-8.9,23.74,23.74,0,0,1,1.64-8.87,22.28,22.28,0,0,1,4.6-7.26A21.63,21.63,0,0,1,340,34.15a22.64,22.64,0,0,1,9.13-1.8,19.69,19.69,0,0,1,4.41.55,20.05,20.05,0,0,1,4.64,1.71,22.34,22.34,0,0,1,4.4,3,19.2,19.2,0,0,1,3.71,4.31,22.91,22.91,0,0,1,2.57,5.75,25.55,25.55,0,0,1,1,7.27,7.92,7.92,0,0,1-.27,2.29,2.51,2.51,0,0,1-.91,1.33,3.82,3.82,0,0,1-1.62.62,14.94,14.94,0,0,1-2.4.16H339.47a11,11,0,0,0,1.46,3.2,9.82,9.82,0,0,0,2.25,2.42,10.17,10.17,0,0,0,2.91,1.55,10.4,10.4,0,0,0,3.35.54,17.66,17.66,0,0,0,4.14-.4,11.94,11.94,0,0,0,2.78-1,10,10,0,0,0,1.95-1.29c.53-.46,1.07-.89,1.6-1.31A1.72,1.72,0,0,1,360.86,62.69ZM345.94,43.41a9.25,9.25,0,0,0-2.4,1.38,10.08,10.08,0,0,0-1.92,2,14.83,14.83,0,0,0-1.46,2.51H357.8a11.51,11.51,0,0,0-3.71-4.77,9,9,0,0,0-5.35-1.67A7.69,7.69,0,0,0,345.94,43.41Z"/><path class="cls-2" d="M377.48,21.44a1.48,1.48,0,0,1,.49-1.23,1.83,1.83,0,0,1,1.22-.4h9.89a1.69,1.69,0,0,1,1.2.45,1.6,1.6,0,0,1,.47,1.18V75.67a1.62,1.62,0,0,1-.43,1.18,1.64,1.64,0,0,1-1.24.46h-9.89a1.87,1.87,0,0,1-1.26-.4,1.58,1.58,0,0,1-.45-1.24Z"/><path class="cls-2" d="M399.12,21.44a1.48,1.48,0,0,1,.49-1.23,1.83,1.83,0,0,1,1.22-.4h9.89a1.69,1.69,0,0,1,1.2.45,1.6,1.6,0,0,1,.47,1.18V75.67a1.55,1.55,0,0,1-1.67,1.64h-9.89a1.87,1.87,0,0,1-1.26-.4,1.58,1.58,0,0,1-.45-1.24Z"/><path class="cls-2" d="M466.47,75.74a1.38,1.38,0,0,1-1.56,1.57h-8a1.4,1.4,0,0,1-1-.37,3.59,3.59,0,0,1-.73-.89,8.44,8.44,0,0,1-.53-1.09l-.36-1-.47-1.24a17.46,17.46,0,0,1-5.46,3.89A15.77,15.77,0,0,1,441.85,78a22.46,22.46,0,0,1-8.46-1.63,22.14,22.14,0,0,1-7.16-4.64,22.41,22.41,0,0,1-5-7.22A23.63,23.63,0,0,1,425.9,39,22.11,22.11,0,0,1,433,34.08a21.8,21.8,0,0,1,8.84-1.8,16,16,0,0,1,7.2,1.58,17.53,17.53,0,0,1,5.49,4.31l1.38-3.85a5.33,5.33,0,0,1,.55-1.2,1.19,1.19,0,0,1,1-.37h7.42a1.39,1.39,0,0,1,1.56,1.57ZM452.31,50.9a11.31,11.31,0,0,0-2.26-3.51,11.05,11.05,0,0,0-3.38-2.4,10,10,0,0,0-4.2-.89,10.18,10.18,0,0,0-7.29,3.06,10.89,10.89,0,0,0-2.3,3.47,11.41,11.41,0,0,0-.85,4.49,11.81,11.81,0,0,0,.8,4.38A11,11,0,0,0,435,63a10,10,0,0,0,3.31,2.31,10.46,10.46,0,0,0,4.15.83,9.89,9.89,0,0,0,4.2-.89,10.85,10.85,0,0,0,5.64-5.89,11.3,11.3,0,0,0,.81-4.24A11.16,11.16,0,0,0,452.31,50.9Z"/><path class="cls-1" d="M110.19,105a.45.45,0,0,1,.16-.49l1.29-1.14a.45.45,0,0,1,.31-.12.83.83,0,0,1,.55.3,7.91,7.91,0,0,0,1.15,1.07,8.6,8.6,0,0,0,3,1.51,6.44,6.44,0,0,0,1.76.23,7.52,7.52,0,0,0,1.7-.21,5.62,5.62,0,0,0,1.66-.67,4,4,0,0,0,1.26-1.19,3,3,0,0,0,.5-1.75,2.09,2.09,0,0,0-.3-1.12,3.19,3.19,0,0,0-.77-.88,5.28,5.28,0,0,0-1.11-.67,12.93,12.93,0,0,0-1.27-.51c-.43-.14-.86-.28-1.27-.39l-1.14-.31a23.79,23.79,0,0,1-3-1,8.33,8.33,0,0,1-2.1-1.25,4.3,4.3,0,0,1-1.22-1.59,5.06,5.06,0,0,1-.4-2.09,5.08,5.08,0,0,1,1.92-4,6.85,6.85,0,0,1,2.31-1.21,10.38,10.38,0,0,1,3.13-.44,8.75,8.75,0,0,1,2,.22,10,10,0,0,1,1.87.62,9.22,9.22,0,0,1,1.7,1,8.8,8.8,0,0,1,1.45,1.27.72.72,0,0,1,.21.44.6.6,0,0,1-.19.45l-1.11,1.09a.58.58,0,0,1-.33.14.63.63,0,0,1-.32-.1,3.09,3.09,0,0,1-.31-.25c-.3-.25-.62-.51-1-.77a8.46,8.46,0,0,0-1.17-.71,7.35,7.35,0,0,0-1.33-.52,5.12,5.12,0,0,0-1.47-.21,7.9,7.9,0,0,0-1.48.15,4.79,4.79,0,0,0-1.44.48,3.14,3.14,0,0,0-1.09.92,2.4,2.4,0,0,0-.43,1.48,2.17,2.17,0,0,0,.41,1.35,3.43,3.43,0,0,0,1.08.94,7.84,7.84,0,0,0,1.54.68c.58.19,1.17.38,1.79.56.9.27,1.82.57,2.74.88a11,11,0,0,1,2.49,1.18,6.28,6.28,0,0,1,1.82,1.73,4.51,4.51,0,0,1,.7,2.56,6,6,0,0,1-.65,2.81,6,6,0,0,1-1.78,2,8.12,8.12,0,0,1-2.63,1.26,12.08,12.08,0,0,1-3.24.42,8.48,8.48,0,0,1-2-.25,10.83,10.83,0,0,1-2-.72,11.33,11.33,0,0,1-1.91-1.14,9.93,9.93,0,0,1-1.65-1.52A1.58,1.58,0,0,1,110.19,105Z"/><path class="cls-1" d="M130.1,95.9a9.64,9.64,0,0,1,2-3,9.5,9.5,0,0,1,3-2,9.15,9.15,0,0,1,3.69-.74,9.38,9.38,0,0,1,3.71.74,9.58,9.58,0,0,1,3,2,9.48,9.48,0,0,1,2,3,9.71,9.71,0,0,1,0,7.41,9.56,9.56,0,0,1-2,3,9.76,9.76,0,0,1-3,2.06,9.09,9.09,0,0,1-3.71.76,9.24,9.24,0,0,1-3.7-.75,9.54,9.54,0,0,1-3-2.06,9.8,9.8,0,0,1-2-3,9.24,9.24,0,0,1-.75-3.7A9.38,9.38,0,0,1,130.1,95.9Zm2.63,6.38a7.08,7.08,0,0,0,1.46,2.17,6.91,6.91,0,0,0,2.13,1.46,6.24,6.24,0,0,0,2.53.53,6.67,6.67,0,0,0,2.7-.53,6,6,0,0,0,2.07-1.46,6.41,6.41,0,0,0,1.33-2.17,7.57,7.57,0,0,0,.47-2.67,7.37,7.37,0,0,0-.48-2.68,6.87,6.87,0,0,0-1.36-2.18,6.2,6.2,0,0,0-2.08-1.46,6.66,6.66,0,0,0-2.67-.52,6.34,6.34,0,0,0-2.54.52,6.89,6.89,0,0,0-3.57,3.63,6.73,6.73,0,0,0-.54,2.69A6.64,6.64,0,0,0,132.73,102.28Z"/><path class="cls-1" d="M152.16,85.48a.59.59,0,0,1,.13-.41.51.51,0,0,1,.4-.16h1.75a.47.47,0,0,1,.39.16.65.65,0,0,1,.12.41v22.76a.65.65,0,0,1-.12.41.47.47,0,0,1-.39.16h-1.75c-.36,0-.53-.19-.53-.57Z"/><path class="cls-1" d="M172.12,107.12a5.81,5.81,0,0,1-2.07,1.58,7.46,7.46,0,0,1-3.13.56,7.36,7.36,0,0,1-3.14-.62A6.45,6.45,0,0,1,161.5,107a7,7,0,0,1-1.39-2.5,9.63,9.63,0,0,1-.47-3.07V91a1,1,0,0,1,.1-.49c.06-.12.22-.19.49-.19h1.69c.23,0,.38.06.44.18a1.08,1.08,0,0,1,.09.46v10.48a6.87,6.87,0,0,0,.24,1.78,4.79,4.79,0,0,0,.79,1.64,4.25,4.25,0,0,0,1.43,1.21,4.73,4.73,0,0,0,2.21.46,5.32,5.32,0,0,0,1.71-.3,5.51,5.51,0,0,0,1.62-.87,4.55,4.55,0,0,0,1.2-1.44,4.06,4.06,0,0,0,.47-2v-11a.56.56,0,0,1,.63-.64h1.5c.45,0,.68.21.68.64v17.28a.61.61,0,0,1-.19.46.64.64,0,0,1-.45.18h-1.51a.66.66,0,0,1-.48-.19.64.64,0,0,1-.18-.45Z"/><path class="cls-1" d="M182.32,90.29h2.1a.53.53,0,0,1,.38.13.52.52,0,0,1,.14.4v1.51a.5.5,0,0,1-.15.37.62.62,0,0,1-.41.14h-2.06V104a4.92,4.92,0,0,0,.07.84,2.2,2.2,0,0,0,.28.78,1.84,1.84,0,0,0,.54.57,1.7,1.7,0,0,0,.89.24l.51,0a1.33,1.33,0,0,1,.39,0,.43.43,0,0,1,.2.12.26.26,0,0,1,.07.15s0,.11,0,.16v1.66a.48.48,0,0,1-.1.29c-.07.09-.26.13-.58.13a6.94,6.94,0,0,1-2.2-.32,4.31,4.31,0,0,1-1.58-.92,3.8,3.8,0,0,1-1-1.42,5.12,5.12,0,0,1-.33-1.88V92.84h-1.84a.64.64,0,0,1-.38-.12.45.45,0,0,1-.16-.39V90.85a.53.53,0,0,1,.16-.43.58.58,0,0,1,.38-.13h1.84V87.37a.52.52,0,0,1,.12-.38.75.75,0,0,1,.4-.21l1.74-.27h.12a.34.34,0,0,1,.31.16.86.86,0,0,1,.1.41Z"/><path class="cls-1" d="M188.18,85.53a.72.72,0,0,1,.13-.44.56.56,0,0,1,.47-.18h1.65c.37,0,.56.22.56.65v1.6a.55.55,0,0,1-.15.46.66.66,0,0,1-.41.11H188.8a.72.72,0,0,1-.46-.12.52.52,0,0,1-.16-.43Zm0,5.29a.52.52,0,0,1,.14-.4.52.52,0,0,1,.37-.13h1.78a.52.52,0,0,1,.38.14.56.56,0,0,1,.14.39v17.45c0,.36-.17.54-.52.54h-1.78q-.51,0-.51-.54Z"/><path class="cls-1" d="M195.61,95.9a9.64,9.64,0,0,1,2-3,9.5,9.5,0,0,1,3-2,9.15,9.15,0,0,1,3.69-.74,9.38,9.38,0,0,1,3.71.74,9.58,9.58,0,0,1,3,2,9.48,9.48,0,0,1,2,3,9.71,9.71,0,0,1,0,7.41,9.56,9.56,0,0,1-2,3,9.76,9.76,0,0,1-3,2.06,9.09,9.09,0,0,1-3.71.76,9.24,9.24,0,0,1-3.7-.75,9.54,9.54,0,0,1-3-2.06,9.8,9.8,0,0,1-2-3,9.24,9.24,0,0,1-.75-3.7A9.38,9.38,0,0,1,195.61,95.9Zm2.63,6.38a7.08,7.08,0,0,0,1.46,2.17,6.91,6.91,0,0,0,2.13,1.46,6.24,6.24,0,0,0,2.53.53,6.67,6.67,0,0,0,2.7-.53,6,6,0,0,0,2.07-1.46,6.41,6.41,0,0,0,1.33-2.17,7.57,7.57,0,0,0,.47-2.67,7.37,7.37,0,0,0-.48-2.68,6.87,6.87,0,0,0-1.36-2.18A6.2,6.2,0,0,0,207,93.29a6.66,6.66,0,0,0-2.67-.52,6.34,6.34,0,0,0-2.54.52,6.89,6.89,0,0,0-3.57,3.63,6.73,6.73,0,0,0-.54,2.69A6.64,6.64,0,0,0,198.24,102.28Z"/><path class="cls-1" d="M220.46,108.25a.5.5,0,0,1-.19.42.78.78,0,0,1-.46.14h-1.63c-.34,0-.51-.19-.51-.56V90.86q0-.57.51-.57H220a.33.33,0,0,1,.34.19,1,1,0,0,1,.09.44v1.92a7.09,7.09,0,0,1,2.41-2.06,6.65,6.65,0,0,1,3-.69,6.84,6.84,0,0,1,2.74.55,6.7,6.7,0,0,1,2.25,1.56,7.46,7.46,0,0,1,1.52,2.46,8.81,8.81,0,0,1,.56,3.26v10.35c0,.36-.16.54-.49.54h-1.74a.48.48,0,0,1-.55-.54V98.08a6.11,6.11,0,0,0-.31-1.94,4.87,4.87,0,0,0-.92-1.67,4.68,4.68,0,0,0-1.52-1.17,4.93,4.93,0,0,0-3.81-.11,4.87,4.87,0,0,0-1.57,1,5,5,0,0,0-1.15,1.62,5.25,5.25,0,0,0-.45,2.25Z"/><path class="cls-1" d="M239.79,89.7a.85.85,0,0,1-.29.37.73.73,0,0,1-.3.07h-1.54a.53.53,0,0,1-.37-.17c-.12-.11-.12-.28,0-.51l1.59-3.36a.83.83,0,0,1,.25-.36.58.58,0,0,1,.33-.09H241a.49.49,0,0,1,.38.73Z"/><path class="cls-1" d="M242.73,104.61c0-.11.15-.21.35-.3l1.38-.64a.66.66,0,0,1,.27-.06.48.48,0,0,1,.37.17,1.6,1.6,0,0,1,.23.38,2.6,2.6,0,0,0,.71,1,4.78,4.78,0,0,0,1,.71,5,5,0,0,0,1.11.42,4.34,4.34,0,0,0,1,.14,5.89,5.89,0,0,0,1.37-.16,4.14,4.14,0,0,0,1.24-.5,2.74,2.74,0,0,0,.89-.87,2.16,2.16,0,0,0,.35-1.25,1.92,1.92,0,0,0-.38-1.25,2.84,2.84,0,0,0-1-.8,7,7,0,0,0-1.34-.5l-1.49-.4a13.19,13.19,0,0,1-2.33-.84,7.06,7.06,0,0,1-1.74-1.17,4.48,4.48,0,0,1-1.1-1.51,4.64,4.64,0,0,1-.38-1.9,5.56,5.56,0,0,1,.4-2.12,4.59,4.59,0,0,1,1.16-1.63,5.47,5.47,0,0,1,1.83-1.06,7.44,7.44,0,0,1,2.44-.37,7.72,7.72,0,0,1,1.94.22,6,6,0,0,1,1.56.62,6.15,6.15,0,0,1,1.29,1A11,11,0,0,1,255,93.22a.87.87,0,0,1,.2.49.55.55,0,0,1-.27.42l-1.14.86a.58.58,0,0,1-.34.15.41.41,0,0,1-.28-.11,2.27,2.27,0,0,1-.25-.27c-.22-.26-.45-.51-.68-.76a4.91,4.91,0,0,0-.79-.64,4.64,4.64,0,0,0-1-.45,4,4,0,0,0-1.26-.17,4.7,4.7,0,0,0-1.2.15,3.05,3.05,0,0,0-1,.46,2.32,2.32,0,0,0-.7.79A2.45,2.45,0,0,0,246,95.3a1.48,1.48,0,0,0,.34,1,3.78,3.78,0,0,0,.89.78,6.41,6.41,0,0,0,1.17.59,8.16,8.16,0,0,0,1.22.39,14.33,14.33,0,0,1,2.52.81,7.68,7.68,0,0,1,2,1.18,4.89,4.89,0,0,1,1.26,1.58,4.64,4.64,0,0,1,.44,2,4.91,4.91,0,0,1-1.89,4,6.33,6.33,0,0,1-2.12,1.08,9.13,9.13,0,0,1-2.68.38,7.74,7.74,0,0,1-1.87-.24,6.89,6.89,0,0,1-1.83-.71,6,6,0,0,1-1.55-1.2,5.22,5.22,0,0,1-1.07-1.7A1.09,1.09,0,0,1,242.73,104.61Z"/></g></g></svg>