<svg xmlns="http://www.w3.org/2000/svg" viewBox="0 0 84.78 84.8"><defs><style>.cls-1{fill:#fff;}.cls-2{fill:#64d4dd;}</style></defs><g id="Capa_2" data-name="Capa 2"><g id="Capa_1-2" data-name="Capa 1"><path class="cls-1" d="M39.74,84.8c-1.55-.22-3.12-.38-4.66-.66a41.72,41.72,0,0,1-25.59-15,40.54,40.54,0,0,1-9.1-21A41.4,41.4,0,0,1,10.09,15,40.27,40.27,0,0,1,33.64.94C48.72-2,61.84,2,72.72,12.85A41.06,41.06,0,0,1,84.41,36.72c.14,1,.25,2,.37,3V45a5.19,5.19,0,0,0-.13.64,40.53,40.53,0,0,1-5.75,18.2A41.93,41.93,0,0,1,49.69,84.15c-1.54.29-3.1.44-4.65.65ZM42.42,3.51A38.89,38.89,0,1,0,81.26,42.43,39,39,0,0,0,42.42,3.51Z"/><path class="cls-1" d="M42.39,24.71H57.61c1.6,0,2.47.66,2.44,1.82s-.87,1.74-2.44,1.74H27.16c-1.59,0-2.47-.65-2.44-1.82s.88-1.74,2.44-1.74Z"/><path class="cls-2" d="M42.4,40.61H57.62c1.56,0,2.41.62,2.43,1.75s-.85,1.81-2.45,1.81H27.15c-1.56,0-2.4-.61-2.43-1.75s.85-1.81,2.45-1.81Z"/><path class="cls-1" d="M42.47,56.52H57.62c1.56,0,2.4.6,2.43,1.74s-.85,1.82-2.44,1.82H27.15c-1.56,0-2.4-.61-2.43-1.75s.85-1.81,2.45-1.81Z"/></g></g></svg>