<svg xmlns="http://www.w3.org/2000/svg" viewBox="0 0 99 99"><defs><style>.cls-1{fill:#64d4dd;}</style></defs><g id="Capa_2" data-name="Capa 2"><g id="Capa_1-2" data-name="Capa 1"><g id="g3900"><g id="g3902"><g id="g3904"><g id="g3910"><g id="path3912"><path class="cls-1" d="M97.55,51A1.45,1.45,0,0,1,96.1,49.5,46.6,46.6,0,0,0,16.55,16.55,46.29,46.29,0,0,0,2.9,49.5a1.45,1.45,0,0,1-2.9,0,49.5,49.5,0,0,1,84.5-35A49.18,49.18,0,0,1,99,49.5,1.45,1.45,0,0,1,97.55,51Z"/></g></g><g id="g3914"><g id="path3916"><path class="cls-1" d="M80.5,51a1.45,1.45,0,0,1-1.45-1.45,68,68,0,0,0-3.26-21.24,1.45,1.45,0,0,1,2.76-.91A71.13,71.13,0,0,1,82,49.5,1.45,1.45,0,0,1,80.5,51Z"/></g></g><g id="g3918"><g id="path3920"><path class="cls-1" d="M18.5,51a1.45,1.45,0,0,1-1.45-1.45c0-13.11,3.31-25.45,9.31-34.76A35.91,35.91,0,0,1,36.64,4,23.22,23.22,0,0,1,49.5,0,24.19,24.19,0,0,1,64.83,5.83,42.32,42.32,0,0,1,76.06,21a1.45,1.45,0,1,1-2.63,1.22A39.6,39.6,0,0,0,63,8.07,21.12,21.12,0,0,0,49.5,2.9c-7.77,0-15.12,4.76-20.7,13.41C23.09,25.15,20,36.94,20,49.5A1.45,1.45,0,0,1,18.5,51Z"/></g></g><g id="g3922"><g id="path3924"><path class="cls-1" d="M49.5,49.4A1.45,1.45,0,0,1,48.05,48V1.45a1.45,1.45,0,0,1,2.9,0V48A1.45,1.45,0,0,1,49.5,49.4Z"/></g></g><g id="g3926"><g id="path3928"><path class="cls-1" d="M49.5,51a1.45,1.45,0,0,1-1.45-1.45c0-3-5.77-6.3-14-6.3a23.55,23.55,0,0,0-10.31,2.12C21.31,46.51,20,48,20,49.5a1.45,1.45,0,0,1-2.9,0c0-2.65,1.9-5,5.34-6.78A26.62,26.62,0,0,1,34,40.3a26.59,26.59,0,0,1,11.61,2.42C49.05,44.45,51,46.85,51,49.5A1.45,1.45,0,0,1,49.5,51Z"/></g></g><g id="g3930"><g id="path3932"><path class="cls-1" d="M80.5,51a1.45,1.45,0,0,1-1.45-1.45c0-3-5.77-6.3-14-6.3a23.55,23.55,0,0,0-10.31,2.12C52.31,46.51,51,48,51,49.5a1.45,1.45,0,0,1-2.9,0c0-2.65,1.9-5,5.34-6.78A26.62,26.62,0,0,1,65,40.3a26.59,26.59,0,0,1,11.61,2.42C80.06,44.45,82,46.85,82,49.5A1.45,1.45,0,0,1,80.5,51Z"/></g></g><g id="g3934"><g id="path3936"><path class="cls-1" d="M18.5,51a1.45,1.45,0,0,1-1.45-1.45c0-3.47-3.17-6.3-7.07-6.3S2.9,46,2.9,49.5a1.45,1.45,0,0,1-2.9,0c0-5.07,4.47-9.2,10-9.2s10,4.13,10,9.2A1.45,1.45,0,0,1,18.5,51Z"/></g></g><g id="g3938"><g id="path3940"><path class="cls-1" d="M97.55,51A1.45,1.45,0,0,1,96.1,49.5c0-3.47-3.17-6.3-7.07-6.3S82,46,82,49.5a1.45,1.45,0,0,1-2.9,0c0-5.07,4.48-9.2,10-9.2s10,4.13,10,9.2A1.45,1.45,0,0,1,97.55,51Z"/></g></g><g id="g3942"><g id="path3944"><path class="cls-1" d="M55.71,99l-.78,0A11,11,0,0,1,45,87.85V80.5a3,3,0,0,1,3-3h3.1a3,3,0,0,1,3,3v7.75A1.65,1.65,0,0,0,56,89.88a1.74,1.74,0,0,0,1.38-1.73,4.57,4.57,0,0,1,5.07-4.42h0a4.72,4.72,0,0,1,4,5A10.77,10.77,0,0,1,55.71,99ZM48,80.4a.11.11,0,0,0-.1.1v7.35a8.09,8.09,0,0,0,7.28,8.23,7.85,7.85,0,0,0,8.41-7.46,1.87,1.87,0,0,0-1.44-2,1.64,1.64,0,0,0-1.28.4,1.62,1.62,0,0,0-.57,1.2,4.55,4.55,0,0,1-7.51,3.5,4.56,4.56,0,0,1-1.59-3.46V80.5a.1.1,0,0,0-.1-.1Z"/></g></g><g id="g3946"><g id="path3948"><path class="cls-1" d="M49.5,80.4A1.45,1.45,0,0,1,48.05,79V55.7a1.45,1.45,0,0,1,2.9,0V79A1.45,1.45,0,0,1,49.5,80.4Z"/></g></g></g></g></g></g></g></svg>